<svg width="400" height="225" viewBox="0 0 400 225" fill="none" xmlns="http://www.w3.org/2000/svg">
<rect width="400" height="225" fill="#F3F4F6"/>
<rect x="175" y="87.5" width="50" height="50" rx="8" fill="#D1D5DB"/>
<path d="M185 102.5L190 107.5L195 97.5L205 107.5L215 97.5V122.5H185V102.5Z" fill="#9CA3AF"/>
<circle cx="192.5" cy="105" r="2.5" fill="#9CA3AF"/>
<path d="M200 140C200 143.314 197.314 146 194 146C190.686 146 188 143.314 188 140C188 136.686 190.686 134 194 134C197.314 134 200 136.686 200 140ZM194 144C196.209 144 198 142.209 198 140C198 137.791 196.209 136 194 136C191.791 136 190 137.791 190 140C190 142.209 191.791 144 194 144Z" fill="#6B7280"/>
<path d="M194 138V142M192 140H196" stroke="#6B7280" stroke-width="0.5" stroke-linecap="round"/>
</svg>